<svg width="12" height="12" viewBox="0 0 12 12" fill="none" xmlns="http://www.w3.org/2000/svg">
<path fill-rule="evenodd" clip-rule="evenodd" d="M1.70588 0.705887C1.15359 0.705887 0.705879 1.1536 0.705879 1.70589V10.2941C0.705879 10.8464 1.1536 11.2941 1.70588 11.2941H10.2941C10.8464 11.2941 11.2941 10.8464 11.2941 10.2941V1.70589C11.2941 1.1536 10.8464 0.705887 10.2941 0.705887H1.70588ZM2.82353 2.11765C2.43368 2.11765 2.11765 2.43368 2.11765 2.82353C2.11765 3.21338 2.43368 3.52941 2.82353 3.52941H9.17647C9.56632 3.52941 9.88235 3.21338 9.88235 2.82353C9.88235 2.43368 9.56632 2.11765 9.17647 2.11765H2.82353ZM2.82353 9.88235C3.21338 9.88235 3.52941 9.56632 3.52941 9.17647C3.52941 8.78662 3.21338 8.47059 2.82353 8.47059C2.43368 8.47059 2.11765 8.78662 2.11765 9.17647C2.11765 9.56632 2.43368 9.88235 2.82353 9.88235ZM5.64706 9.88235C6.03691 9.88235 6.35294 9.56632 6.35294 9.17647C6.35294 8.78662 6.03691 8.47059 5.64706 8.47059C5.25721 8.47059 4.94118 8.78662 4.94118 9.17647C4.94118 9.56632 5.25721 9.88235 5.64706 9.88235ZM9.17647 9.17647C9.17647 9.56632 8.86044 9.88235 8.47059 9.88235C8.08074 9.88235 7.76471 9.56632 7.76471 9.17647C7.76471 8.78662 8.08074 8.47059 8.47059 8.47059C8.86044 8.47059 9.17647 8.78662 9.17647 9.17647ZM2.11765 4.94118C2.11765 4.55133 2.43368 4.2353 2.82353 4.2353H7.05883C7.44867 4.2353 7.76471 4.55133 7.76471 4.94118C7.76471 5.33103 7.44867 5.64706 7.05883 5.64706H2.82353C2.43368 5.64706 2.11765 5.33103 2.11765 4.94118Z" fill="#7B7B7B"/>
</svg>
